PathFileType	3	(X/Y/Z)	D:\minhoCalibration\240510\subject3_KPNP\preferred\preferred10.trc
DataRate	CameraRate	NumFrames	NumMarkers	Units	OrigDataRate	OrigDataStartFrame	OrigNumFrames
200.0	200.0	18	10	mm	200.0	140	121	
Frame#	Time	Left_Ankle_Outer1			Left_Ankle_Inner1			Left_Knee_Outer1			Left_Knee_Inner1			Left_Wrist1			Right_Wrist1			Right_Knee_Inner1			Right_Knee_Outer1			Right_Ankle_Inner1			Right_Ankle_Outer1			
		X1	Y1	Z1	X2	Y2	Z2	X3	Y3	Z3	X4	Y4	Z4	X5	Y5	Z5	X6	Y6	Z6	X7	Y7	Z7	X8	Y8	Z8	X9	Y9	Z9	X10	Y10	Z10	
140	0.69	-313.75928	81.480812	-523.24225	-368.94254	91.487091	-523.54865	-228.45532	492.59869	-372.78467	-333.13962	496.8306	-362.00006	-188.01736	867.80719	-535.71082	-543.57916	889.79663	-616.27649	-600.40723	433.83142	-661.552	-674.67419	518.05127	-706.03906	-480.14676	260.84299	-1028.2823	-564.36395	296.65817	-1074.3917
141	0.695	-312.79669	82.329491	-522.80756	-367.88107	92.602715	-523.30957	-226.27443	493.18176	-372.79355	-330.76096	497.56464	-361.5625	-183.98572	870.25769	-534.29852	-541.56647	893.92767	-606.13892	-601.98456	437.34207	-643.21521	-678.92285	521.55981	-686.3407	-485.30084	274.63617	-1015.2308	-571.2561	307.97131	-1058.8408
142	0.7	-311.6358	83.415222	-522.65491	-366.76904	93.736481	-522.93445	-223.71751	493.89276	-373.20554	-328.35397	498.37952	-361.53394	-179.54063	872.74249	-533.3692	-539.01227	898.56299	-595.89325	-602.32373	441.27179	-624.98022	-682.82001	525.69623	-665.93445	-490.49973	288.37192	-1001.0815	-576.9563	322.09119	-1043.6033
143	0.705	-310.55048	84.362541	-522.35681	-365.85117	95.015778	-522.57574	-221.06119	494.66605	-373.82816	-325.7572	499.21735	-362.0795	-174.70396	875.25977	-533.10236	-536.67468	903.28339	-584.87933	-602.13208	445.39233	-606.55029	-686.36462	530.57025	-644.83917	-495.86496	302.22644	-985.83856	-582.98096	336.27893	-1026.455
144	0.71	-309.57837	85.473602	-521.98724	-364.81628	96.359047	-522.27686	-218.10231	495.59061	-374.86166	-322.72714	500.04816	-362.71603	-169.95062	877.87219	-533.57788	-533.67871	908.75183	-574.02246	-601.38556	450.02682	-587.83759	-689.43457	536.50372	-622.17029	-501.38312	316.12711	-969.68964	-588.42004	352.05081	-1009.9771
145	0.715	-308.61298	86.756439	-521.73212	-363.86993	97.891884	-521.76385	-215.32941	496.5271	-375.89459	-319.91443	500.69385	-363.52582	-165.15981	880.50116	-534.93134	-529.54169	914.42957	-562.69672	-600.35986	455.07034	-568.49652	-692.02576	542.48993	-599.27936	-507.30658	329.84244	-952.76971	-593.78503	367.87973	-991.99048
146	0.72	-307.62543	88.08744	-521.46582	-362.99677	99.430359	-521.23779	-212.16534	497.67578	-377.34143	-316.72473	501.61368	-364.24588	-160.58029	883.16473	-536.93744	-525.74237	920.49371	-551.82281	-599.13544	460.81213	-549.08899	-694.03131	549.19812	-575.45129	-513.4577	343.59509	-935.30225	-600.02344	383.72153	-970.8526
147	0.725	-306.6506	89.671501	-521.00842	-362.10187	101.34183	-520.6192	-208.96021	498.86472	-378.83499	-313.60257	503.09402	-364.72299	-156.15016	885.69244	-539.51074	-520.91425	926.52087	-541.15076	-597.96338	467.21945	-529.32104	-695.48187	556.66003	-550.9032	-519.80475	357.29584	-917.0235	-605.83319	399.89462	-951.20172
148	0.73	-305.7901	91.319458	-520.49707	-361.3822	103.31848	-519.7926	-205.57288	500.215	-380.50595	-309.72931	504.40305	-365.22751	-151.40291	888.38959	-542.78699	-515.5282	933.04852	-530.62878	-596.74786	474.21069	-509.04172	-696.12836	564.89459	-525.69452	-526.64563	371.12354	-898.20227	-612.28619	416.4437	-930.08661
149	0.735	-304.99231	93.34549	-520.06	-360.71948	105.48607	-518.86237	-202.18326	501.69028	-382.2193	-306.01089	506.17361	-365.24625	-146.46753	891.23956	-546.91058	-511.03467	939.51599	-520.4339	-595.57031	482.13086	-488.21912	-696.02252	574.10474	-500.22482	-533.76953	385.13904	-878.80109	-619.23877	432.69009	-909.36475
150	0.74	-304.41129	95.297768	-519.41211	-360.11221	107.75213	-517.72168	-198.59476	503.24213	-384.06564	-301.96994	508.17477	-365.05719	-142.92358	893.60193	-550.80908	-504.65381	946.52209	-510.98801	-594.45801	491.00537	-466.5264	-695.25793	584.41333	-474.82635	-541.5014	399.32904	-858.93982	-627.0899	448.944	-885.44592
151	0.745	-303.86801	97.399124	-518.66504	-359.65637	110.24711	-516.55402	-194.95911	504.98181	-385.97821	-297.41391	510.20175	-364.87335	-138.65599	896.08093	-555.37653	-498.31665	953.9079	-502.2515	-593.1911	501.00772	-444.04041	-693.67676	595.93097	-449.66144	-549.2439	413.70956	-838.51416	-634.67975	464.96719	-863.15173
152	0.75	-303.48154	99.386765	-517.78418	-359.71735	112.51334	-514.6438	-191.20811	506.92499	-388.12286	-292.69052	512.67853	-364.42917	-134.72127	898.59338	-560.41901	-492.40952	961.3432	-493.32336	-591.70569	512.0752	-420.64114	-691.14349	608.35358	-424.79614	-556.91119	428.74268	-818.06232	-643.5224	481.85437	-838.7019
153	0.755	-303.4025	101.70445	-516.90472	-358.94174	115.27812	-513.82428	-187.64148	508.84567	-390.21915	-288.15283	515.3938	-363.96759	-131.81021	900.56915	-565.57941	-485.3685	968.73621	-487.08063	-589.55841	524.13757	-396.64771	-688.16089	622.15015	-400.14172	-565.67871	443.50192	-796.47559	-652.30804	498.10129	-813.85486
154	0.76	-303.70654	103.73728	-515.76953	-358.77414	117.78979	-512.22565	-183.73308	511.01785	-392.73663	-283.64334	517.90521	-363.36459	-128.45418	902.58563	-571.41016	-478.81329	976.38617	-480.19046	-586.90204	537.448	-371.64017	-684.11621	636.79376	-375.83194	-574.78296	458.34677	-774.36066	-661.35565	514.43732	-788.3241
155	0.765	-303.32379	106.03297	-515.01355	-358.73892	120.36993	-510.46426	-180.53809	512.86011	-395.49338	-278.40021	521.04828	-363.05133	-125.53933	904.47107	-577.49091	-471.53241	984.43085	-474.35571	-583.3902	551.68604	-346.97321	-679.20245	652.34839	-351.78909	-584.43658	473.19211	-751.38641	-671.03772	530.94012	-762.13611
156	0.77	-303.42413	108.21997	-514.08264	-358.81891	123.0097	-508.70419	-176.98761	514.88824	-398.15631	-273.08633	524.04211	-362.75723	-122.96738	906.01685	-583.80469	-464.59967	992.01422	-469.23126	-579.0343	566.69373	-322.82574	-673.34406	668.8609	-327.92938	-594.17145	488.09317	-727.92749	-680.34058	546.55524	-735.46954
157	0.775	-303.68112	110.08153	-513.13318	-358.95889	125.60094	-506.74445	-173.36217	516.92853	-401.02133	-267.71783	527.40448	-362.62476	-120.84256	907.3905	-590.32031	-457.50031	999.63287	-464.77887	-573.70728	582.9455	-298.4169	-666.42371	686.29089	-304.2348	-603.69397	502.69504	-704.11835	-690.40143	562.92236	-707.72266
